<mxfile>
    <diagram id="B8CQPDVYVvgVIz6H9fII" name="Page-1">
        <mxGraphModel dx="893" dy="605" grid="1" gridSize="10" guides="1" tooltips="1" connect="1" arrows="1" fold="1" page="1" pageScale="1" pageWidth="827" pageHeight="1169" math="0" shadow="0">
            <root>
                <mxCell id="0"/>
                <mxCell id="1" parent="0"/>
                <mxCell id="wlDjf0e4SVVT7Qa_cbIk-11" value="" style="rounded=1;whiteSpace=wrap;html=1;" parent="1" vertex="1">
                    <mxGeometry x="345" y="250" width="410" height="200" as="geometry"/>
                </mxCell>
                <mxCell id="wlDjf0e4SVVT7Qa_cbIk-1" value="" style="rounded=1;whiteSpace=wrap;html=1;" parent="1" vertex="1">
                    <mxGeometry x="40" y="220" width="280" height="280" as="geometry"/>
                </mxCell>
                <mxCell id="wlDjf0e4SVVT7Qa_cbIk-5" value="&lt;span style=&quot;color: rgb(26 , 26 , 26) ; font-family: &amp;#34;opensans&amp;#34; , &amp;#34;arial&amp;#34; , sans-serif , &amp;#34;noto sans hebrew&amp;#34; , &amp;#34;noto sans&amp;#34; , &amp;#34;noto sans jp&amp;#34; , &amp;#34;noto sans kr&amp;#34; ; font-size: 12px ; font-style: normal ; font-weight: 400 ; letter-spacing: normal ; text-align: center ; text-indent: 0px ; text-transform: none ; word-spacing: 0px ; background-color: rgba(255 , 255 , 255 , 0.01) ; display: inline ; float: none&quot;&gt;Добавить товар в корзину&lt;/span&gt;" style="rounded=1;whiteSpace=wrap;html=1;fontSize=12;fillColor=#dae8fc;strokeColor=#6c8ebf;" parent="1" vertex="1">
                    <mxGeometry x="60" y="250" width="120" height="60" as="geometry"/>
                </mxCell>
                <mxCell id="wlDjf0e4SVVT7Qa_cbIk-6" value="&lt;span style=&quot;color: rgb(26 , 26 , 26) ; font-family: &amp;#34;opensans&amp;#34; , &amp;#34;arial&amp;#34; , sans-serif , &amp;#34;noto sans hebrew&amp;#34; , &amp;#34;noto sans&amp;#34; , &amp;#34;noto sans jp&amp;#34; , &amp;#34;noto sans kr&amp;#34; ; font-size: 12px ; font-style: normal ; font-weight: 400 ; letter-spacing: normal ; text-align: center ; text-indent: 0px ; text-transform: none ; word-spacing: 0px ; background-color: rgba(255 , 255 , 255 , 0.01) ; display: inline ; float: none&quot;&gt;Товар добавлен в корзину&lt;/span&gt;" style="rounded=1;whiteSpace=wrap;html=1;fontSize=12;fillColor=#ffe6cc;strokeColor=#d79b00;" parent="1" vertex="1">
                    <mxGeometry x="180" y="250" width="120" height="60" as="geometry"/>
                </mxCell>
                <mxCell id="wlDjf0e4SVVT7Qa_cbIk-7" value="&lt;span style=&quot;color: rgb(26 , 26 , 26) ; font-family: &amp;#34;opensans&amp;#34; , &amp;#34;arial&amp;#34; , sans-serif , &amp;#34;noto sans hebrew&amp;#34; , &amp;#34;noto sans&amp;#34; , &amp;#34;noto sans jp&amp;#34; , &amp;#34;noto sans kr&amp;#34; ; font-size: 12px ; font-style: normal ; font-weight: 400 ; letter-spacing: normal ; text-align: center ; text-indent: 0px ; text-transform: none ; word-spacing: 0px ; background-color: rgba(255 , 255 , 255 , 0.01) ; display: inline ; float: none&quot;&gt;Удалить товар из корзины&lt;/span&gt;" style="rounded=1;whiteSpace=wrap;html=1;fontSize=12;fillColor=#dae8fc;strokeColor=#6c8ebf;" parent="1" vertex="1">
                    <mxGeometry x="60" y="330" width="120" height="60" as="geometry"/>
                </mxCell>
                <mxCell id="wlDjf0e4SVVT7Qa_cbIk-8" value="&lt;span style=&quot;color: rgb(26 , 26 , 26) ; font-family: &amp;#34;opensans&amp;#34; , &amp;#34;arial&amp;#34; , sans-serif , &amp;#34;noto sans hebrew&amp;#34; , &amp;#34;noto sans&amp;#34; , &amp;#34;noto sans jp&amp;#34; , &amp;#34;noto sans kr&amp;#34; ; font-size: 12px ; font-style: normal ; font-weight: 400 ; letter-spacing: normal ; text-align: center ; text-indent: 0px ; text-transform: none ; word-spacing: 0px ; background-color: rgba(255 , 255 , 255 , 0.01) ; display: inline ; float: none&quot;&gt;товар удален из корзины&lt;/span&gt;" style="rounded=1;whiteSpace=wrap;html=1;fontSize=12;fillColor=#ffe6cc;strokeColor=#d79b00;" parent="1" vertex="1">
                    <mxGeometry x="180" y="330" width="120" height="60" as="geometry"/>
                </mxCell>
                <mxCell id="wlDjf0e4SVVT7Qa_cbIk-9" value="&lt;span style=&quot;color: rgb(26 , 26 , 26) ; font-family: &amp;#34;opensans&amp;#34; , &amp;#34;arial&amp;#34; , sans-serif , &amp;#34;noto sans hebrew&amp;#34; , &amp;#34;noto sans&amp;#34; , &amp;#34;noto sans jp&amp;#34; , &amp;#34;noto sans kr&amp;#34; ; font-size: 12px ; font-style: normal ; font-weight: 400 ; letter-spacing: normal ; text-align: center ; text-indent: 0px ; text-transform: none ; word-spacing: 0px ; background-color: rgba(255 , 255 , 255 , 0.01) ; display: inline ; float: none&quot;&gt;Изменить количество единиц товара&lt;/span&gt;" style="rounded=1;whiteSpace=wrap;html=1;fontSize=12;fillColor=#dae8fc;strokeColor=#6c8ebf;" parent="1" vertex="1">
                    <mxGeometry x="60" y="410" width="120" height="60" as="geometry"/>
                </mxCell>
                <mxCell id="wlDjf0e4SVVT7Qa_cbIk-10" value="&lt;span style=&quot;color: rgb(26 , 26 , 26) ; font-family: &amp;#34;opensans&amp;#34; , &amp;#34;arial&amp;#34; , sans-serif , &amp;#34;noto sans hebrew&amp;#34; , &amp;#34;noto sans&amp;#34; , &amp;#34;noto sans jp&amp;#34; , &amp;#34;noto sans kr&amp;#34; ; font-size: 12px ; font-style: normal ; font-weight: 400 ; letter-spacing: normal ; text-align: center ; text-indent: 0px ; text-transform: none ; word-spacing: 0px ; background-color: rgba(255 , 255 , 255 , 0.01) ; display: inline ; float: none&quot;&gt;количество единиц товара изменено&lt;/span&gt;" style="rounded=1;whiteSpace=wrap;html=1;fontSize=12;fillColor=#ffe6cc;strokeColor=#d79b00;" parent="1" vertex="1">
                    <mxGeometry x="180" y="410" width="120" height="60" as="geometry"/>
                </mxCell>
                <mxCell id="wlDjf0e4SVVT7Qa_cbIk-12" value="&lt;span style=&quot;color: rgb(26 , 26 , 26) ; font-family: &amp;#34;opensans&amp;#34; , &amp;#34;arial&amp;#34; , sans-serif , &amp;#34;noto sans hebrew&amp;#34; , &amp;#34;noto sans&amp;#34; , &amp;#34;noto sans jp&amp;#34; , &amp;#34;noto sans kr&amp;#34; ; font-size: 12px ; font-style: normal ; font-weight: 400 ; letter-spacing: normal ; text-align: center ; text-indent: 0px ; text-transform: none ; word-spacing: 0px ; background-color: rgba(255 , 255 , 255 , 0.01) ; display: inline ; float: none&quot;&gt;Отменить заказ&lt;/span&gt;" style="rounded=1;whiteSpace=wrap;html=1;fontSize=12;fillColor=#dae8fc;strokeColor=#6c8ebf;" parent="1" vertex="1">
                    <mxGeometry x="370" y="280" width="120" height="60" as="geometry"/>
                </mxCell>
                <mxCell id="wlDjf0e4SVVT7Qa_cbIk-13" value="&lt;span style=&quot;color: rgb(26 , 26 , 26) ; font-family: &amp;#34;opensans&amp;#34; , &amp;#34;arial&amp;#34; , sans-serif , &amp;#34;noto sans hebrew&amp;#34; , &amp;#34;noto sans&amp;#34; , &amp;#34;noto sans jp&amp;#34; , &amp;#34;noto sans kr&amp;#34; ; font-size: 12px ; font-style: normal ; font-weight: 400 ; letter-spacing: normal ; text-align: center ; text-indent: 0px ; text-transform: none ; word-spacing: 0px ; background-color: rgba(255 , 255 , 255 , 0.01) ; display: inline ; float: none&quot;&gt;Заказ отменен&lt;/span&gt;" style="rounded=1;whiteSpace=wrap;html=1;fontSize=12;fillColor=#ffe6cc;strokeColor=#d79b00;" parent="1" vertex="1">
                    <mxGeometry x="610" y="280" width="120" height="60" as="geometry"/>
                </mxCell>
                <mxCell id="wlDjf0e4SVVT7Qa_cbIk-14" value="&lt;span style=&quot;color: rgb(26 , 26 , 26) ; font-family: &amp;#34;opensans&amp;#34; , &amp;#34;arial&amp;#34; , sans-serif , &amp;#34;noto sans hebrew&amp;#34; , &amp;#34;noto sans&amp;#34; , &amp;#34;noto sans jp&amp;#34; , &amp;#34;noto sans kr&amp;#34; ; font-size: 12px ; font-style: normal ; font-weight: 400 ; letter-spacing: normal ; text-align: center ; text-indent: 0px ; text-transform: none ; word-spacing: 0px ; background-color: rgba(255 , 255 , 255 , 0.01) ; display: inline ; float: none&quot;&gt;Оформить заказ&lt;/span&gt;" style="rounded=1;whiteSpace=wrap;html=1;fontSize=12;fillColor=#dae8fc;strokeColor=#6c8ebf;" parent="1" vertex="1">
                    <mxGeometry x="370" y="360" width="120" height="60" as="geometry"/>
                </mxCell>
                <mxCell id="wlDjf0e4SVVT7Qa_cbIk-15" value="&lt;font color=&quot;#1a1a1a&quot; face=&quot;opensans, arial, sans-serif, noto sans hebrew, noto sans, noto sans jp, noto sans kr&quot;&gt;&lt;span style=&quot;background-color: rgba(255 , 255 , 255 , 0.01)&quot;&gt;Заказ отправлен на оплату&lt;/span&gt;&lt;/font&gt;" style="rounded=1;whiteSpace=wrap;html=1;fontSize=12;fillColor=#ffe6cc;strokeColor=#d79b00;" parent="1" vertex="1">
                    <mxGeometry x="490" y="360" width="120" height="60" as="geometry"/>
                </mxCell>
                <mxCell id="wlDjf0e4SVVT7Qa_cbIk-20" value="&lt;font color=&quot;#1a1a1a&quot; face=&quot;opensans, arial, sans-serif, noto sans hebrew, noto sans, noto sans jp, noto sans kr&quot;&gt;&lt;span style=&quot;background-color: rgba(255 , 255 , 255 , 0.01)&quot;&gt;Если не отправлен на оплату&lt;/span&gt;&lt;/font&gt;" style="rounded=1;whiteSpace=wrap;html=1;fontSize=12;fillColor=#fff2cc;strokeColor=#d6b656;" parent="1" vertex="1">
                    <mxGeometry x="490" y="280" width="120" height="60" as="geometry"/>
                </mxCell>
                <mxCell id="wlDjf0e4SVVT7Qa_cbIk-21" value="" style="rounded=1;whiteSpace=wrap;html=1;" parent="1" vertex="1">
                    <mxGeometry x="50" y="540" width="400" height="385" as="geometry"/>
                </mxCell>
                <mxCell id="wlDjf0e4SVVT7Qa_cbIk-22" value="&lt;span style=&quot;color: rgb(26 , 26 , 26) ; font-family: &amp;#34;opensans&amp;#34; , &amp;#34;arial&amp;#34; , sans-serif , &amp;#34;noto sans hebrew&amp;#34; , &amp;#34;noto sans&amp;#34; , &amp;#34;noto sans jp&amp;#34; , &amp;#34;noto sans kr&amp;#34; ; font-size: 12px ; font-style: normal ; font-weight: 400 ; letter-spacing: normal ; text-align: center ; text-indent: 0px ; text-transform: none ; word-spacing: 0px ; background-color: rgba(255 , 255 , 255 , 0.01) ; display: inline ; float: none&quot;&gt;Просматривать заказы&lt;/span&gt;" style="rounded=1;whiteSpace=wrap;html=1;fontSize=12;fillColor=#dae8fc;strokeColor=#6c8ebf;" parent="1" vertex="1">
                    <mxGeometry x="70" y="625" width="120" height="60" as="geometry"/>
                </mxCell>
                <mxCell id="wlDjf0e4SVVT7Qa_cbIk-24" value="&lt;span style=&quot;color: rgb(26 , 26 , 26) ; font-family: &amp;#34;opensans&amp;#34; , &amp;#34;arial&amp;#34; , sans-serif , &amp;#34;noto sans hebrew&amp;#34; , &amp;#34;noto sans&amp;#34; , &amp;#34;noto sans jp&amp;#34; , &amp;#34;noto sans kr&amp;#34; ; font-size: 12px ; font-style: normal ; font-weight: 400 ; letter-spacing: normal ; text-align: center ; text-indent: 0px ; text-transform: none ; word-spacing: 0px ; background-color: rgba(255 , 255 , 255 , 0.01) ; display: inline ; float: none&quot;&gt;Фильтровать заказы&lt;/span&gt;" style="rounded=1;whiteSpace=wrap;html=1;fontSize=12;fillColor=#dae8fc;strokeColor=#6c8ebf;" parent="1" vertex="1">
                    <mxGeometry x="70" y="705" width="120" height="60" as="geometry"/>
                </mxCell>
                <mxCell id="wlDjf0e4SVVT7Qa_cbIk-26" value="&lt;span style=&quot;color: rgb(26 , 26 , 26) ; font-family: &amp;#34;opensans&amp;#34; , &amp;#34;arial&amp;#34; , sans-serif , &amp;#34;noto sans hebrew&amp;#34; , &amp;#34;noto sans&amp;#34; , &amp;#34;noto sans jp&amp;#34; , &amp;#34;noto sans kr&amp;#34; ; font-size: 12px ; font-style: normal ; font-weight: 400 ; letter-spacing: normal ; text-align: center ; text-indent: 0px ; text-transform: none ; word-spacing: 0px ; background-color: rgba(255 , 255 , 255 , 0.01) ; display: inline ; float: none&quot;&gt;Сортировать заказы&lt;/span&gt;" style="rounded=1;whiteSpace=wrap;html=1;fontSize=12;fillColor=#dae8fc;strokeColor=#6c8ebf;" parent="1" vertex="1">
                    <mxGeometry x="70" y="815" width="120" height="60" as="geometry"/>
                </mxCell>
                <mxCell id="wlDjf0e4SVVT7Qa_cbIk-29" value="&lt;span style=&quot;color: rgb(26 , 26 , 26) ; font-family: &amp;#34;opensans&amp;#34; , &amp;#34;arial&amp;#34; , sans-serif , &amp;#34;noto sans hebrew&amp;#34; , &amp;#34;noto sans&amp;#34; , &amp;#34;noto sans jp&amp;#34; , &amp;#34;noto sans kr&amp;#34; ; font-size: 12px ; font-style: normal ; font-weight: 400 ; letter-spacing: normal ; text-align: center ; text-indent: 0px ; text-transform: none ; word-spacing: 0px ; background-color: rgba(255 , 255 , 255 , 0.01) ; display: inline ; float: none&quot;&gt;Список заказов с ценами&lt;/span&gt;" style="rounded=1;whiteSpace=wrap;html=1;fontSize=12;fillColor=#d5e8d4;strokeColor=#82b366;" parent="1" vertex="1">
                    <mxGeometry x="190" y="625" width="120" height="60" as="geometry"/>
                </mxCell>
                <mxCell id="wlDjf0e4SVVT7Qa_cbIk-31" value="По статусу" style="rounded=1;whiteSpace=wrap;html=1;fontSize=12;fillColor=#dae8fc;strokeColor=#6c8ebf;" parent="1" vertex="1">
                    <mxGeometry x="190" y="705" width="120" height="60" as="geometry"/>
                </mxCell>
                <mxCell id="wlDjf0e4SVVT7Qa_cbIk-32" value="По цене" style="rounded=1;whiteSpace=wrap;html=1;fontSize=12;fillColor=#dae8fc;strokeColor=#6c8ebf;" parent="1" vertex="1">
                    <mxGeometry x="190" y="785" width="120" height="60" as="geometry"/>
                </mxCell>
                <mxCell id="wlDjf0e4SVVT7Qa_cbIk-33" value="По дате создания" style="rounded=1;whiteSpace=wrap;html=1;fontSize=12;fillColor=#dae8fc;strokeColor=#6c8ebf;" parent="1" vertex="1">
                    <mxGeometry x="190" y="845" width="120" height="60" as="geometry"/>
                </mxCell>
                <mxCell id="wlDjf0e4SVVT7Qa_cbIk-34" value="" style="rounded=1;whiteSpace=wrap;html=1;" parent="1" vertex="1">
                    <mxGeometry x="200" y="20" width="380" height="100" as="geometry"/>
                </mxCell>
                <mxCell id="wlDjf0e4SVVT7Qa_cbIk-35" value="&lt;font color=&quot;#1a1a1a&quot; face=&quot;opensans, arial, sans-serif, noto sans hebrew, noto sans, noto sans jp, noto sans kr&quot;&gt;&lt;span style=&quot;background-color: rgba(255 , 255 , 255 , 0.01)&quot;&gt;Найти товар&lt;/span&gt;&lt;/font&gt;" style="rounded=1;whiteSpace=wrap;html=1;fontSize=12;fillColor=#dae8fc;strokeColor=#6c8ebf;" parent="1" vertex="1">
                    <mxGeometry x="210" y="40" width="120" height="60" as="geometry"/>
                </mxCell>
                <mxCell id="wlDjf0e4SVVT7Qa_cbIk-37" value="&lt;font color=&quot;#1a1a1a&quot; face=&quot;opensans, arial, sans-serif, noto sans hebrew, noto sans, noto sans jp, noto sans kr&quot;&gt;&lt;span style=&quot;background-color: rgba(255 , 255 , 255 , 0.01)&quot;&gt;id, product_name, price&lt;/span&gt;&lt;/font&gt;" style="rounded=1;whiteSpace=wrap;html=1;fontSize=12;fillColor=#d5e8d4;strokeColor=#82b366;" parent="1" vertex="1">
                    <mxGeometry x="330" y="40" width="120" height="60" as="geometry"/>
                </mxCell>
                <mxCell id="wlDjf0e4SVVT7Qa_cbIk-39" value="&lt;span style=&quot;color: rgb(26 , 26 , 26) ; font-family: &amp;#34;opensans&amp;#34; , &amp;#34;arial&amp;#34; , sans-serif , &amp;#34;noto sans hebrew&amp;#34; , &amp;#34;noto sans&amp;#34; , &amp;#34;noto sans jp&amp;#34; , &amp;#34;noto sans kr&amp;#34; ; font-size: 12px ; font-style: normal ; font-weight: 400 ; letter-spacing: normal ; text-align: center ; text-indent: 0px ; text-transform: none ; word-spacing: 0px ; background-color: rgba(255 , 255 , 255 , 0.01) ; display: inline ; float: none&quot;&gt;Товар найден&lt;/span&gt;" style="rounded=1;whiteSpace=wrap;html=1;fontSize=12;fillColor=#ffe6cc;strokeColor=#d79b00;" parent="1" vertex="1">
                    <mxGeometry x="450" y="40" width="120" height="60" as="geometry"/>
                </mxCell>
                <mxCell id="wlDjf0e4SVVT7Qa_cbIk-40" value="&lt;span style=&quot;color: rgb(26 , 26 , 26) ; font-family: &amp;#34;opensans&amp;#34; , &amp;#34;arial&amp;#34; , sans-serif , &amp;#34;noto sans hebrew&amp;#34; , &amp;#34;noto sans&amp;#34; , &amp;#34;noto sans jp&amp;#34; , &amp;#34;noto sans kr&amp;#34; ; font-size: 12px ; font-style: normal ; font-weight: 400 ; letter-spacing: normal ; text-align: center ; text-indent: 0px ; text-transform: none ; word-spacing: 0px ; background-color: rgba(255 , 255 , 255 , 0.01) ; display: inline ; float: none&quot;&gt;Список заказов показан&lt;/span&gt;" style="rounded=1;whiteSpace=wrap;html=1;fontSize=12;fillColor=#ffe6cc;strokeColor=#d79b00;" parent="1" vertex="1">
                    <mxGeometry x="310" y="625" width="120" height="60" as="geometry"/>
                </mxCell>
                <mxCell id="wlDjf0e4SVVT7Qa_cbIk-42" value="&lt;span style=&quot;color: rgb(26 , 26 , 26) ; font-family: &amp;#34;opensans&amp;#34; , &amp;#34;arial&amp;#34; , sans-serif , &amp;#34;noto sans hebrew&amp;#34; , &amp;#34;noto sans&amp;#34; , &amp;#34;noto sans jp&amp;#34; , &amp;#34;noto sans kr&amp;#34; ; font-size: 12px ; font-style: normal ; font-weight: 400 ; letter-spacing: normal ; text-align: center ; text-indent: 0px ; text-transform: none ; word-spacing: 0px ; background-color: rgba(255 , 255 , 255 , 0.01) ; display: inline ; float: none&quot;&gt;Список заказов показан&lt;/span&gt;" style="rounded=1;whiteSpace=wrap;html=1;fontSize=12;fillColor=#ffe6cc;strokeColor=#d79b00;" parent="1" vertex="1">
                    <mxGeometry x="310" y="705" width="120" height="60" as="geometry"/>
                </mxCell>
                <mxCell id="wlDjf0e4SVVT7Qa_cbIk-43" value="&lt;span style=&quot;color: rgb(26 , 26 , 26) ; font-family: &amp;#34;opensans&amp;#34; , &amp;#34;arial&amp;#34; , sans-serif , &amp;#34;noto sans hebrew&amp;#34; , &amp;#34;noto sans&amp;#34; , &amp;#34;noto sans jp&amp;#34; , &amp;#34;noto sans kr&amp;#34; ; font-size: 12px ; font-style: normal ; font-weight: 400 ; letter-spacing: normal ; text-align: center ; text-indent: 0px ; text-transform: none ; word-spacing: 0px ; background-color: rgba(255 , 255 , 255 , 0.01) ; display: inline ; float: none&quot;&gt;Список заказов показан&lt;/span&gt;" style="rounded=1;whiteSpace=wrap;html=1;fontSize=12;fillColor=#ffe6cc;strokeColor=#d79b00;" parent="1" vertex="1">
                    <mxGeometry x="310" y="785" width="120" height="60" as="geometry"/>
                </mxCell>
                <mxCell id="wlDjf0e4SVVT7Qa_cbIk-44" value="&lt;span style=&quot;color: rgb(26 , 26 , 26) ; font-family: &amp;#34;opensans&amp;#34; , &amp;#34;arial&amp;#34; , sans-serif , &amp;#34;noto sans hebrew&amp;#34; , &amp;#34;noto sans&amp;#34; , &amp;#34;noto sans jp&amp;#34; , &amp;#34;noto sans kr&amp;#34; ; font-size: 12px ; font-style: normal ; font-weight: 400 ; letter-spacing: normal ; text-align: center ; text-indent: 0px ; text-transform: none ; word-spacing: 0px ; background-color: rgba(255 , 255 , 255 , 0.01) ; display: inline ; float: none&quot;&gt;Список заказов показан&lt;/span&gt;" style="rounded=1;whiteSpace=wrap;html=1;fontSize=12;fillColor=#ffe6cc;strokeColor=#d79b00;" parent="1" vertex="1">
                    <mxGeometry x="310" y="845" width="120" height="60" as="geometry"/>
                </mxCell>
                <mxCell id="wlDjf0e4SVVT7Qa_cbIk-46" value="&lt;font color=&quot;#1a1a1a&quot; face=&quot;opensans, arial, sans-serif, noto sans hebrew, noto sans, noto sans jp, noto sans kr&quot;&gt;&lt;span style=&quot;background-color: rgba(255 , 255 , 255 , 0.01)&quot;&gt;Бэкофис&lt;/span&gt;&lt;/font&gt;" style="rounded=1;whiteSpace=wrap;html=1;fontSize=12;fillColor=#e1d5e7;strokeColor=#9673a6;" parent="1" vertex="1">
                    <mxGeometry x="70" y="570" width="120" height="40" as="geometry"/>
                </mxCell>
            </root>
        </mxGraphModel>
    </diagram>
    <diagram id="-rVYAf_tAHDuS7-oY9kJ" name="Page-2">
        <mxGraphModel dx="893" dy="605" grid="1" gridSize="10" guides="1" tooltips="1" connect="1" arrows="1" fold="1" page="1" pageScale="1" pageWidth="827" pageHeight="1169" math="0" shadow="0">
            <root>
                <mxCell id="kbUo986i5eelEffH0hlO-0"/>
                <mxCell id="kbUo986i5eelEffH0hlO-1" parent="kbUo986i5eelEffH0hlO-0"/>
                <mxCell id="kbUo986i5eelEffH0hlO-2" value="classDiagram&#10;      Aggregate &lt;|-- Order&#10;      Animal &lt;|-- Fish&#10;      Animal &lt;|-- Zebra&#10;      Animal : +int age&#10;      Animal : +String gender&#10;      Animal: +isMammal()&#10;      Animal: +mate()&#10;      interface Aggregate&#10;      class Duck{&#10;          +String beakColor&#10;          +swim()&#10;          +quack()&#10;      }&#10;      class Fish{&#10;          -int sizeInFeet&#10;          -canEat()&#10;      }&#10;      class Zebra{&#10;          +bool is_wild&#10;          +run()&#10;      }" style="shadow=0;dashed=0;align=left;strokeWidth=1;shape=mxgraph.mermaid.abstract.mermaid;labelBackgroundColor=#ffffff;noLabel=1;" vertex="1" parent="kbUo986i5eelEffH0hlO-1">
                    <mxGeometry x="260" y="210" width="300" height="200" as="geometry"/>
                </mxCell>
            </root>
        </mxGraphModel>
    </diagram>
</mxfile>